<mxfile
  host="Electron" 
  agent="Mozilla/5.0 (Macintosh; Intel Mac OS X 10_15_7) AppleWebKit/537.36 (KHTML, like Gecko) draw.io/25.0.2 Chrome/128.0.6613.186 Electron/32.2.5 Safari/537.36" 
  version="25.0.2"
  >
  <diagram
    name="-"
    >
    <mxGraphModel
      grid="1" 
      gridSize="10" 
      guides="1" 
      tooltips="1" 
      connect="1" 
      arrows="1" 
      fold="1" 
      page="1" 
      pageScale="1" 
      pageWidth="1" 
      pageHeight="1" 
      math="0" 
      shadow="0"
      >
      <root>
        <mxCell
          id="page"
          />
        <mxCell
          id="root" 
          parent="page"
          />
        <mxCell
          style="verticalAlign=top;aspect=fixed;align=center;spacingLeft=5;spacingRight=5;spacingBottom=5;strokeColor=none;" 
          id="shape_" 
          parent="root" 
          value=" " 
          vertex="1"
          >
          <mxGeometry
            as="geometry" 
            width="62" 
            height="54" 
            x="0" 
            y="0"
            />
          </mxCell>
        <mxCell
          style="sketch=0;html=1;verticalAlign=top;labelPosition=center;verticalLabelPosition=bottom;align=center;spacingTop=-6;fontSize=11;fontStyle=1;fontColor=#999999;shape=image;aspect=fixed;imageAspect=0;image=data:image/svg+xml,PHN2ZyB4bWxucz0iaHR0cDovL3d3dy53My5vcmcvMjAwMC9zdmciIHhtbG5zOnY9Imh0dHBzOi8vdmVjdGEuaW8vbmFubyIgd2lkdGg9IjM4MC42MzY0OTE2NzUyNjI0NSIgaGVpZ2h0PSIyNzUuNjgyNTM0NzQ5ODYxMTMiIHZpZXdCb3g9Ii0wLjM2OTAwMDAxNzY0Mjk3NDg1IDAgMTAwLjcxMDAwNjcxMzg2NzE5IDcyLjk0MTAwMTg5MjA4OTg0Ij4mI3hhOzxzdHlsZSB0eXBlPSJ0ZXh0L2NzcyI+JiN4YTsJLnN0MHtmaWxsOiM0Mjg1ZjQ7fSYjeGE7CS5zdDF7ZmlsbDojNjY5ZGY2O30mI3hhOwkuc3Qye2ZpbGw6I2FlY2JmYTt9JiN4YTs8L3N0eWxlPiYjeGE7CTxwYXRoIGNsYXNzPSJzdDAiIGQ9Ik0xMDAuMzQxIDQwLjA4TDc2LjQ0IDcyLjk0MWwtNDcuNjkyLS4wNy00Ljg0Ni02LjY1OSA0Ljg4MS02LjU4OSAzOC4xMDUuMDcgMjMuNzY1LTMyLjg0NXpNLS4zNjkgMzIuODYxTDIzLjUzMiAwbDQ3LjY5Mi4wNyA0Ljg0NiA2LjY1OS00Ljg4MSA2LjU4OS0zOC4xMDUtLjA3TDkuMzE5IDQ2LjA5M3oiLz4mI3hhOwk8cGF0aCBjbGFzcz0ic3QxIiBkPSJNMzMuOTc0IDI5Ljg3N3YtNC4wNjFoMTIuODk5di00LjYzN2g1LjUyNnY0LjYzN2gxMy4zMTd2NC4wNjF6Ii8+JiN4YTsJPHBhdGggY2xhc3M9InN0MiIgZD0iTTYzLjg2OCA1MS43N2MtNC40NTItLjY4Mi05LjQ4MS0yLjk1NS0xMy43MzYtNS45NjEtNC4wNjUgMi41MzItOC41ODIgNC43NDEtMTMuOTQ1IDYuMzQ1bC0zLjEwMy00LjAwOWM0Ljc2NS0xLjA2MSA5LjIzNy0yLjk5NSAxMy4wNzMtNS41NDMtMi41NDQtMi41NDMtNC43MjktNS4zNTQtNi4zNDUtOC40NTRoNi4xMDFjMS4xNDYgMS45ODcgMi41NjMgMy42NTMgNC4wNzkgNS4xNzcgMS43NTgtMS41OSAzLjAyOC0zLjMwOSA0LjA0NC01LjE3N2g2LjIwNWMtMS40MzIgMi44ODktMy4yMTggNS43MDItNi4zMSA4LjMxNWEzNS43NyAzNS43NyAwIDAgMCAxMi43NiA1LjEyNXoiLz4mI3hhOzwvc3ZnPg;strokeColor=none;" 
          id="automl_translation_" 
          parent="shape_" 
          value=" " 
          vertex="1"
          >
          <mxGeometry
            width="42" 
            height="34" 
            as="geometry" 
            x="10" 
            y="10"
            />
          </mxCell>
        </root>
      </mxGraphModel>
    </diagram>
  </mxfile>